<svg width="360" height="540" viewBox="0 0 361 540" fill="none" xmlns="http://www.w3.org/2000/svg">
<rect width="360" height="540" rx="15" fill="#202024"/>
<mask id="mask0_" style="mask-type:alpha" maskUnits="userSpaceOnUse" x="0" y="0" width="360" height="540">
<rect width="360" height="540" rx="15" fill="#202024"/>
</mask>
<g mask="url(#mask0_)">
<path d="M361 61.4924V-396.824L179.996 -500L-1.00842 -396.824V61.4924L179.996 164.674L361 61.4924Z" fill="url(#paint0_linear_)"/>
<g style="mix-blend-mode:luminosity" opacity="0.4">
<path d="M1.18365 -40.6504V62.1591L91.2943 113.569L181.405 62.1591V-40.6504L91.2943 -92.0601L1.18365 -40.6504Z" fill="url(#paint1_linear_)"/>
<path d="M1.18365 -143.465V-40.6555L91.2943 10.7541L181.405 -40.6555V-143.465L91.2943 -194.875L1.18365 -143.465Z" fill="url(#paint2_linear_)"/>
<path d="M181.405 62.1587V-40.6508L271.516 -92.0605L361.626 -40.6508V62.1587L271.516 113.568L181.405 62.1587Z" fill="url(#paint3_linear_)"/>
<path d="M361.626 -143.465V-40.6555L271.516 10.7541L181.405 -40.6555V-143.465L271.516 -194.875L361.626 -143.465Z" fill="url(#paint4_linear_)"/>
<path d="M271.516 113.59V10.7808L181.405 -40.6289L91.2945 10.7808L91.2945 113.59L181.405 165L271.516 113.59Z" fill="url(#paint5_linear_)"/>
</g>
</g>
<defs>
<linearGradient id="paint0_linear_" x1="-1.00843" y1="-484.234" x2="442.516" y2="-422.679" gradientUnits="userSpaceOnUse">
<stop stop-color="#FF008C"/>
<stop offset="1" stop-color="#3301E6"/>
</linearGradient>
<linearGradient id="paint1_linear_" x1="91.2943" y1="108.84" x2="2.77375" y2="-43.5942" gradientUnits="userSpaceOnUse">
<stop stop-color="#8257E5"/>
<stop offset="1" stop-color="#FF008E" stop-opacity="0"/>
</linearGradient>
<linearGradient id="paint2_linear_" x1="91.2943" y1="6.02582" x2="2.77373" y2="-146.409" gradientUnits="userSpaceOnUse">
<stop stop-color="#8257E5"/>
<stop offset="1" stop-color="#FF008E" stop-opacity="0"/>
</linearGradient>
<linearGradient id="paint3_linear_" x1="361.626" y1="67.9367" x2="182.555" y2="-41.1041" gradientUnits="userSpaceOnUse">
<stop stop-color="#FF008E" stop-opacity="0"/>
<stop offset="1" stop-color="#FFCD1E"/>
</linearGradient>
<linearGradient id="paint4_linear_" x1="271.516" y1="6.02582" x2="360.036" y2="-146.409" gradientUnits="userSpaceOnUse">
<stop stop-color="#8257E5"/>
<stop offset="1" stop-color="#FF008E" stop-opacity="0"/>
</linearGradient>
<linearGradient id="paint5_linear_" x1="181.405" y1="-35.9006" x2="269.926" y2="116.534" gradientUnits="userSpaceOnUse">
<stop stop-color="#8257E5"/>
<stop offset="1" stop-color="#FF008E" stop-opacity="0"/>
</linearGradient>
</defs>
</svg>
